<?xml version="1.0" standalone="no"?>
<!DOCTYPE svg PUBLIC "-//W3C//DTD SVG 20010904//EN"
 "http://www.w3.org/TR/2001/REC-SVG-20010904/DTD/svg10.dtd">
<svg version="1.0" xmlns="http://www.w3.org/2000/svg"
 width="877.000000pt" height="1316.000000pt" viewBox="0 0 877.000000 1316.000000"
 preserveAspectRatio="xMidYMid meet">

<g transform="translate(0.000000,1316.000000) scale(0.100000,-0.100000)"
fill="#000000" stroke="none">
<path d="M4405 11926 c-27 -4 -90 -10 -140 -12 -110 -3 -185 -13 -185 -24 0
-8 -86 -28 -145 -35 -43 -4 -116 -25 -145 -41 -14 -7 -41 -18 -60 -23 -19 -5
-48 -14 -65 -20 -16 -6 -42 -13 -57 -16 -17 -3 -28 -12 -28 -22 0 -9 -3 -14
-6 -10 -4 3 -21 -5 -39 -18 -17 -14 -37 -25 -43 -25 -7 0 -20 -8 -30 -18 -9
-9 -49 -33 -87 -51 -39 -19 -95 -55 -125 -81 -30 -26 -66 -55 -80 -66 -13 -10
-52 -46 -85 -79 -33 -33 -93 -89 -133 -125 -40 -36 -78 -77 -84 -91 -6 -14
-23 -31 -37 -38 -14 -6 -44 -34 -66 -62 -22 -27 -62 -73 -88 -102 -66 -71 -77
-85 -77 -97 0 -5 -5 -10 -10 -10 -6 0 -15 -11 -20 -25 -5 -14 -19 -38 -30 -53
-24 -32 -120 -310 -120 -346 0 -15 -4 -26 -9 -26 -14 0 -25 -75 -26 -170 -1
-47 -7 -136 -13 -199 -9 -80 -9 -117 -2 -121 6 -4 9 -26 6 -53 -3 -33 0 -47
10 -51 9 -3 13 -21 13 -48 -1 -68 1 -81 14 -96 9 -11 7 -17 -7 -28 -15 -11
-18 -22 -14 -65 3 -33 0 -61 -8 -77 -12 -23 -11 -28 11 -50 14 -14 25 -36 25
-51 0 -14 4 -40 9 -58 6 -22 6 -33 -2 -36 -7 -2 -3 -14 10 -33 11 -16 18 -34
16 -41 -2 -7 7 -15 21 -19 25 -6 37 -24 16 -24 -5 0 -10 -7 -10 -15 0 -16 -21
-20 -34 -7 -4 4 -11 7 -14 7 -4 1 -28 9 -54 19 -85 33 -190 -5 -236 -85 -47
-81 -53 -315 -13 -437 25 -74 30 -101 46 -262 13 -130 16 -138 63 -230 27 -52
81 -151 120 -219 92 -157 129 -190 218 -191 l51 0 7 -58 c13 -116 46 -250 86
-352 40 -101 80 -190 90 -200 3 -3 11 -16 18 -30 7 -14 36 -50 63 -80 118
-128 119 -129 119 -179 0 -25 -5 -120 -11 -211 l-10 -165 -38 -40 c-45 -47
-92 -121 -121 -190 -46 -108 -48 -110 -165 -190 -63 -42 -127 -92 -142 -110
-51 -60 -63 -75 -63 -83 0 -5 -16 -15 -35 -22 -42 -16 -69 -42 -36 -33 26 7
27 -10 5 -52 -31 -58 -57 -239 -58 -410 -1 -155 4 -214 39 -450 29 -194 30
-225 9 -227 -11 0 -109 -2 -219 -3 -110 0 -239 -7 -286 -14 -130 -19 -562 -5
-594 19 -14 11 -93 21 -164 21 -47 1 -79 -7 -153 -39 -184 -77 -215 -85 -411
-107 -73 -8 -163 -22 -202 -30 -38 -8 -119 -20 -180 -26 -177 -17 -175 -16
-175 -45 l0 -26 97 7 c104 7 206 19 288 35 112 21 224 39 285 46 59 6 238 62
264 83 22 17 125 41 178 41 30 0 88 -9 129 -21 108 -31 375 -36 674 -14 303
23 499 11 530 -31 17 -24 29 -84 18 -94 -4 -4 -64 -3 -133 2 -88 7 -195 6
-360 -2 -422 -22 -575 -21 -739 7 -171 29 -220 25 -341 -22 -47 -19 -112 -38
-145 -44 -33 -6 -103 -18 -155 -27 -52 -8 -131 -24 -175 -35 -53 -13 -136 -22
-247 -26 -124 -4 -168 -9 -168 -19 0 -8 32 -14 106 -19 154 -11 274 -2 381 29
51 14 144 35 207 45 63 11 143 32 178 46 94 39 190 43 309 14 84 -20 115 -23
294 -21 110 1 288 7 395 14 235 15 425 14 540 -4 84 -13 85 -14 103 -52 10
-21 17 -45 15 -54 -4 -19 -26 -20 -303 -11 -82 2 -242 -2 -355 -8 -113 -7
-290 -14 -395 -15 -163 -2 -209 1 -319 21 -139 25 -209 24 -300 -6 -27 -8 -99
-26 -160 -38 -61 -13 -149 -33 -196 -45 -76 -20 -101 -22 -240 -16 -85 3 -179
8 -208 12 l-52 7 0 -690 0 -689 33 -17 c57 -29 149 -82 284 -165 161 -99 211
-125 227 -119 9 4 15 46 20 134 7 130 3 150 -34 213 -5 8 -21 40 -36 70 -14
30 -36 71 -49 90 -43 65 -41 72 23 102 77 36 122 45 122 24 0 -24 31 -33 155
-50 163 -21 523 -25 1185 -12 202 4 379 2 445 -4 61 -5 198 -17 305 -25 107
-8 229 -19 270 -24 41 -5 127 -14 190 -21 63 -6 147 -15 185 -21 39 -6 113
-15 165 -20 145 -13 231 -26 291 -46 49 -16 54 -21 57 -51 3 -24 8 -32 23 -32
11 0 28 -4 38 -9 24 -13 124 -13 846 -1 1237 21 1317 22 1434 11 64 -5 179
-15 256 -21 77 -6 205 -18 285 -26 285 -30 511 -32 1030 -10 85 4 198 14 250
22 52 8 155 20 227 27 73 7 135 16 139 19 3 3 19 59 35 125 50 200 96 352 120
393 5 8 16 30 25 48 9 18 24 32 35 32 10 0 20 4 24 9 3 5 22 15 43 22 20 6 56
21 80 31 38 18 42 24 42 55 0 26 -4 34 -14 30 -68 -26 -151 -46 -159 -38 -6 6
2 33 21 75 28 60 34 66 91 93 55 26 60 31 61 61 0 28 -3 32 -25 32 -31 0 -31
4 0 59 21 36 25 56 25 122 l0 79 -44 0 c-24 0 -65 -10 -92 -22 -56 -25 -112
-27 -253 -11 -84 9 -109 8 -234 -13 -101 -17 -212 -27 -401 -34 -147 -6 -292
-17 -331 -25 -91 -19 -293 -19 -470 1 -135 14 -170 19 -283 43 -82 17 -288 30
-499 33 -84 1 -157 5 -164 8 -19 12 36 96 74 111 23 10 80 14 207 13 182 -1
293 -11 470 -44 195 -37 617 -61 697 -40 130 33 186 40 343 41 169 0 212 4
409 34 110 17 118 17 215 -1 133 -24 236 -24 303 1 29 11 53 26 53 34 0 9 -7
11 -22 6 -13 -4 -52 -11 -88 -17 -55 -8 -77 -6 -155 13 -105 27 -225 30 -360
10 -49 -7 -187 -16 -305 -20 -187 -7 -225 -11 -290 -32 -68 -22 -90 -24 -245
-22 -173 1 -462 30 -584 59 -79 18 -301 34 -483 34 l-138 0 0 28 c0 41 24 68
74 81 70 17 457 16 541 -2 124 -27 541 -68 709 -69 93 0 124 4 191 25 92 29
148 36 370 42 88 2 203 9 254 15 106 13 152 9 266 -25 101 -30 163 -38 220
-29 35 5 45 10 45 25 0 16 -8 19 -57 20 -32 0 -89 9 -128 20 -113 32 -258 60
-281 54 -22 -5 -111 -9 -402 -20 -124 -5 -169 -11 -235 -31 -45 -14 -102 -29
-127 -35 -41 -8 -195 -5 -244 6 -11 3 -111 12 -221 20 -110 9 -243 25 -295 36
-92 19 -195 22 -540 15 -53 -1 -55 0 -58 27 -3 23 107 341 153 442 22 48 50
238 72 490 11 114 9 341 -2 380 -13 46 -53 101 -93 128 -49 32 -108 94 -126
132 -19 38 -69 106 -166 223 -41 51 -88 110 -105 132 -46 63 -156 190 -165
190 -4 0 -12 12 -19 26 -8 19 -10 69 -5 180 l7 154 41 53 c23 28 52 64 66 79
14 14 34 43 45 65 11 21 22 40 25 43 9 9 49 102 81 190 29 80 75 288 86 393 3
26 9 49 13 52 4 2 26 -3 49 -12 39 -15 46 -15 96 1 69 21 107 65 177 200 28
56 54 103 58 106 4 3 21 41 38 85 31 82 50 208 52 345 0 36 10 121 21 190 17
101 20 151 16 261 -6 152 -19 193 -69 222 -38 22 -138 23 -178 2 -31 -16 -35
-13 -31 27 1 9 -5 28 -13 41 -15 22 -14 28 20 94 35 70 35 72 19 109 -9 21
-18 53 -21 71 -4 27 -2 32 10 27 9 -3 16 -1 16 5 0 7 -7 14 -15 17 -11 5 -13
10 -5 19 6 7 10 39 10 71 0 33 0 69 0 82 4 99 -5 212 -20 267 -6 23 -10 45 -9
50 4 13 -22 137 -31 150 -13 18 -19 82 -8 93 6 6 4 17 -8 31 -13 14 -17 33
-15 62 2 26 -3 47 -13 58 -9 10 -20 42 -26 71 -6 30 -18 67 -28 84 -10 17 -24
52 -31 77 -7 25 -26 59 -42 77 -16 17 -29 36 -29 42 0 7 -8 24 -18 38 -10 15
-24 42 -32 60 -7 18 -20 38 -29 45 -9 7 -24 24 -34 40 -10 15 -40 51 -67 79
-28 29 -50 56 -50 59 0 27 -312 299 -343 299 -4 0 -6 4 -3 9 3 5 -25 25 -63
45 -38 20 -84 49 -102 66 -19 16 -43 30 -54 30 -12 0 -32 11 -45 25 -13 14
-31 25 -40 25 -10 0 -28 8 -41 19 -13 10 -46 29 -74 41 -27 12 -61 31 -74 41
-13 11 -37 19 -53 19 -21 0 -31 6 -38 25 -7 20 -17 25 -42 25 -34 0 -172 35
-200 50 -10 6 -40 10 -66 10 -27 0 -73 8 -103 18 -42 14 -65 16 -104 8z m-522
-1423 c-7 -2 -21 -2 -30 0 -10 3 -4 5 12 5 17 0 24 -2 18 -5z m904 1 c-3 -3
-12 -4 -19 -1 -8 3 -5 6 6 6 11 1 17 -2 13 -5z m111 -14 c8 0 13 -3 9 -6 -10
-10 -48 7 -40 19 5 8 8 8 11 -1 2 -7 11 -12 20 -12z m-1021 -26 c-34 -18 -27
-35 11 -28 19 4 33 0 41 -10 8 -9 9 -16 3 -16 -6 0 -12 6 -15 13 -3 10 -9 10
-26 0 -11 -7 -32 -13 -45 -13 -14 0 -27 -4 -30 -9 -3 -5 9 -9 27 -8 47 1 92
-20 94 -43 1 -15 -5 -20 -25 -20 -15 0 -37 -3 -49 -6 -17 -5 -23 -2 -23 10 0
12 10 16 41 16 23 0 38 4 34 10 -3 5 -20 7 -38 4 -24 -4 -28 -3 -17 5 13 9 13
11 -2 11 -9 0 -18 -6 -21 -12 -3 -10 -9 -10 -26 0 -16 9 -27 10 -41 2 -30 -16
-25 -31 7 -19 31 12 55 -3 35 -23 -23 -23 -11 -27 83 -25 59 1 94 -2 92 -8 -1
-5 -26 -9 -56 -8 l-54 2 22 -23 c11 -12 21 -27 21 -33 0 -6 9 -9 20 -6 11 3
20 12 20 19 0 8 12 20 28 27 15 6 30 16 34 22 5 7 15 5 30 -4 15 -10 23 -10
26 -2 2 7 8 6 18 -3 18 -19 18 -26 -1 -26 -8 0 -15 -9 -15 -20 0 -12 7 -20 16
-20 10 0 14 -6 11 -14 -3 -8 2 -16 11 -18 10 -3 18 -15 19 -26 2 -21 -2 -22
-70 -20 -63 1 -65 2 -19 5 49 4 65 14 42 28 -5 3 -10 1 -10 -4 0 -6 -22 -11
-51 -11 -41 0 -50 -3 -45 -15 7 -18 -30 -30 -97 -29 -28 0 -42 -3 -35 -8 8 -5
0 -8 -21 -8 -33 0 -33 0 -17 24 15 24 15 25 -12 28 -17 2 -26 8 -24 17 5 22
-20 32 -35 13 -12 -16 -14 -16 -27 1 -12 15 -18 17 -35 7 -30 -16 -48 -2 -21
17 17 12 19 18 9 30 -9 10 -9 17 -2 21 5 4 13 14 16 22 3 9 6 4 6 -12 1 -16 5
-28 10 -28 14 0 18 42 7 62 -13 22 -1 34 19 18 12 -10 15 -10 15 0 0 7 -8 18
-17 25 -15 11 -15 13 5 19 12 4 22 12 22 17 0 12 -3 12 -36 -6 -16 -8 -36 -15
-44 -15 -8 0 -27 -7 -42 -14 -24 -13 -28 -13 -28 0 0 8 10 14 25 14 15 0 25 6
25 15 0 19 37 39 42 23 3 -7 25 4 57 26 30 20 65 39 80 42 14 3 31 7 36 9 28
10 36 2 12 -11z m-153 -38 c-10 -8 -21 -12 -24 -10 -5 6 21 24 34 24 6 0 1 -6
-10 -14z m1218 -38 c-9 -9 -15 -9 -24 0 -9 9 -7 12 12 12 19 0 21 -3 12 -12z
m-5 -24 c-3 -3 -12 -4 -19 -1 -8 3 -5 6 6 6 11 1 17 -2 13 -5z m-874 -10 c9
-3 17 -12 17 -20 0 -18 -14 -18 -30 1 -7 8 -21 15 -31 15 -11 0 -19 -7 -19
-15 0 -19 -24 -20 -39 -1 -9 11 -9 15 1 18 20 7 81 8 101 2z m101 -89 l-7 -55
42 0 c30 0 41 -4 41 -15 0 -8 -7 -15 -16 -15 -8 0 -12 5 -9 10 4 6 -10 10 -34
10 l-41 0 0 40 c0 22 5 40 10 40 6 0 10 9 10 20 0 11 2 20 5 20 3 0 2 -25 -1
-55z m823 49 c-3 -3 -12 -4 -19 -1 -8 3 -5 6 6 6 11 1 17 -2 13 -5z m-507 -44
c0 -5 -2 -10 -4 -10 -3 0 -8 5 -11 10 -3 6 -1 10 4 10 6 0 11 -4 11 -10z m250
-6 c0 -8 -4 -12 -10 -9 -5 3 -10 10 -10 16 0 5 5 9 10 9 6 0 10 -7 10 -16z
m83 -27 c-7 -11 -23 12 -23 32 0 11 4 9 14 -4 8 -11 12 -24 9 -28z m87 33 c0
-5 -4 -10 -10 -10 -5 0 -10 5 -10 10 0 6 5 10 10 10 6 0 10 -4 10 -10z m-310
-14 c0 -3 -4 -8 -10 -11 -5 -3 -10 -1 -10 4 0 6 5 11 10 11 6 0 10 -2 10 -4z
m353 -18 c-13 -6 -23 -15 -23 -20 0 -4 -9 -8 -20 -8 -11 0 -20 3 -20 8 0 10
41 29 65 30 18 1 18 0 -2 -10z m-1323 -8 c0 -5 -4 -10 -10 -10 -5 0 -10 5 -10
10 0 6 5 10 10 10 6 0 10 -4 10 -10z m795 -20 c3 -5 1 -10 -4 -10 -6 0 -11 5
-11 10 0 6 2 10 4 10 3 0 8 -4 11 -10z m445 -5 c0 -18 -55 -21 -66 -3 -5 8 -2
9 9 5 9 -3 19 -2 22 3 10 16 35 12 35 -5z m-583 -1 c-3 -3 -12 -4 -19 -1 -8 3
-5 6 6 6 11 1 17 -2 13 -5z m680 0 c-3 -3 -12 -4 -19 -1 -8 3 -5 6 6 6 11 1
17 -2 13 -5z m-1356 -18 c-6 -7 -9 -22 -5 -32 5 -15 4 -16 -4 -5 -9 12 -13 13
-26 1 -30 -24 -30 0 0 25 31 27 54 34 35 11z m899 10 c0 -11 -19 -15 -25 -6
-3 5 1 10 9 10 9 0 16 -2 16 -4z m60 -6 c0 -5 -4 -10 -10 -10 -5 0 -10 5 -10
10 0 6 5 10 10 10 6 0 10 -4 10 -10z m-190 -10 c0 -5 -4 -10 -10 -10 -5 0 -10
5 -10 10 0 6 5 10 10 10 6 0 10 -4 10 -10z m540 2 c0 -6 -87 -42 -104 -42 -3
0 -6 7 -6 15 0 11 11 15 40 15 22 0 40 5 40 10 0 6 7 10 15 10 8 0 15 -3 15
-8z m-1270 -21 c0 -12 -20 -25 -27 -18 -7 7 6 27 18 27 5 0 9 -4 9 -9z m70 -1
c11 -7 12 -12 3 -21 -13 -13 -57 6 -48 22 8 12 26 11 45 -1z m1250 0 c0 -5 -7
-10 -16 -10 -8 0 -12 5 -9 10 3 6 10 10 16 10 5 0 9 -4 9 -10z m-1187 -48 c8
-10 7 -16 -4 -24 -11 -7 -11 -11 -1 -15 24 -9 13 -33 -15 -32 -17 1 -21 3 -10
6 32 8 17 23 -23 23 -22 0 -40 -4 -40 -10 0 -15 -42 -12 -63 4 -18 14 -17 15
4 21 17 6 19 9 8 16 -8 5 -21 6 -31 3 -9 -2 -19 0 -23 6 -4 7 -1 10 6 9 8 -1
26 1 42 5 36 11 66 -10 41 -29 -10 -6 -13 -14 -8 -17 14 -8 84 3 84 13 0 5 -4
9 -9 9 -5 0 -2 15 7 33 14 27 17 29 20 12 2 -11 9 -26 15 -33z m1142 28 c3 -5
-3 -10 -14 -10 -10 0 -21 -4 -23 -10 -1 -5 -14 -7 -27 -3 l-23 6 28 13 c36 16
51 17 59 4z m-420 -10 c3 -5 1 -10 -4 -10 -6 0 -11 5 -11 10 0 6 2 10 4 10 3
0 8 -4 11 -10z m310 -10 c4 -7 -8 -8 -37 -4 -57 9 -61 14 -10 14 22 0 44 -5
47 -10z m175 0 c19 -6 12 -8 -30 -9 -39 0 -51 2 -40 9 17 11 35 11 70 0z
m-747 -7 c-7 -2 -21 -2 -30 0 -10 3 -4 5 12 5 17 0 24 -2 18 -5z m-193 -30
c-8 -2 -22 -7 -30 -9 -13 -5 -13 -6 0 -15 11 -8 1 -9 -35 -5 -27 2 -59 1 -70
-4 -19 -8 -19 -9 3 -9 18 -1 22 -7 22 -32 0 -25 -3 -30 -17 -25 -9 4 -42 9
-74 13 -61 6 -95 -7 -85 -33 3 -8 0 -11 -10 -7 -19 7 -18 33 2 33 10 0 14 6
10 15 -3 10 1 15 14 15 10 0 21 4 24 9 3 4 33 14 66 21 33 7 60 17 60 22 0 6
-10 8 -22 5 -69 -17 -98 -19 -98 -7 0 7 6 10 14 7 8 -3 27 -2 42 2 31 8 208
13 184 4z m-455 -12 c6 -11 -1 -16 -40 -25 -29 -7 -29 -7 -11 13 20 22 41 27
51 12z m565 -11 c0 -5 -7 -10 -16 -10 -8 0 -12 5 -9 10 3 6 10 10 16 10 5 0 9
-4 9 -10z m583 -9 c17 -6 17 -8 3 -20 -13 -11 -16 -11 -16 2 0 9 -8 18 -17 20
-12 3 -13 5 -3 5 8 0 23 -3 33 -7z m-1024 -10 c10 -7 0 -11 -35 -16 -80 -10
-83 -10 -86 0 -2 6 12 9 32 7 19 -1 42 2 50 8 18 12 21 12 39 1z m291 -11 c0
-5 -9 -10 -20 -10 -11 0 -20 5 -20 10 0 6 9 10 20 10 11 0 20 -4 20 -10z m58
-2 c-3 -7 -11 -13 -18 -13 -7 0 -15 6 -17 13 -3 7 4 12 17 12 13 0 20 -5 18
-12z m55 5 c-7 -2 -19 -2 -25 0 -7 3 -2 5 12 5 14 0 19 -2 13 -5z m-646 -9
c-3 -3 -12 -4 -19 -1 -8 3 -5 6 6 6 11 1 17 -2 13 -5z m103 -4 c0 -5 -9 -10
-21 -10 -11 0 -17 5 -14 10 3 6 13 10 21 10 8 0 14 -4 14 -10z m600 -7 c0 -32
-16 -47 -36 -34 -18 10 -18 10 4 11 15 0 22 6 22 20 0 11 2 20 5 20 3 0 5 -8
5 -17z m130 -3 c0 -5 -8 -10 -18 -10 -10 0 -23 -5 -30 -12 -9 -9 -12 -9 -12 3
0 9 3 19 7 22 10 11 53 8 53 -3z m-800 -10 c-14 -4 -34 -8 -45 -8 l-20 -1 20
9 c11 5 31 8 45 8 l25 0 -25 -8z m193 -7 c-7 -2 -19 -2 -25 0 -7 3 -2 5 12 5
14 0 19 -2 13 -5z m647 3 c0 -3 -4 -8 -10 -11 -5 -3 -10 -1 -10 4 0 6 5 11 10
11 6 0 10 -2 10 -4z m60 -6 c0 -5 -2 -10 -4 -10 -3 0 -8 5 -11 10 -3 6 -1 10
4 10 6 0 11 -4 11 -10z m-870 -10 c0 -5 -8 -10 -17 -10 -15 0 -16 2 -3 10 19
12 20 12 20 0z m923 3 c-7 -2 -19 -2 -25 0 -7 3 -2 5 12 5 14 0 19 -2 13 -5z
m-218 -13 c3 -5 -1 -10 -10 -10 -9 0 -13 5 -10 10 3 6 8 10 10 10 2 0 7 -4 10
-10z m-555 -26 c0 -14 -4 -23 -10 -19 -5 3 -10 15 -10 26 0 10 5 19 10 19 6 0
10 -12 10 -26z m188 19 c-38 -10 20 -62 60 -55 6 2 12 -4 12 -13 0 -8 4 -15 9
-15 13 0 21 53 10 66 -6 8 -4 14 7 18 25 10 34 7 34 -9 0 -8 -5 -15 -11 -15
-6 0 -8 -9 -4 -20 4 -12 1 -27 -5 -35 -10 -12 -9 -15 4 -15 9 0 16 -7 16 -16
0 -14 -7 -16 -43 -11 -23 3 -49 2 -56 -2 -14 -9 -5 -12 81 -27 21 -3 36 -10
33 -14 -9 -14 26 -70 43 -70 9 0 30 7 46 15 15 8 53 15 82 15 53 0 54 0 54 30
0 28 2 30 20 20 11 -6 20 -18 20 -26 0 -9 -9 -18 -20 -21 -31 -8 -25 -40 10
-48 37 -8 66 0 108 32 27 20 33 22 38 9 8 -22 24 -10 24 19 0 19 -6 24 -32 27
-26 3 -29 6 -16 12 10 5 30 2 48 -5 26 -12 30 -19 30 -51 0 -35 -2 -37 -37
-41 l-38 -4 40 -1 c48 -2 78 13 56 27 -12 8 -12 12 -2 25 15 18 47 21 57 5 4
-8 9 -7 15 2 5 9 11 6 20 -14 15 -33 23 -34 37 -2 6 14 16 25 22 25 6 0 16
-11 22 -25 15 -33 20 -32 42 9 17 31 20 33 57 26 33 -6 39 -5 37 9 -3 17 52
29 142 30 59 1 33 -14 -39 -22 -59 -7 -108 -37 -60 -37 14 0 29 4 34 9 14 13
148 -12 180 -33 20 -13 30 -15 38 -7 18 18 27 13 27 -16 1 -25 2 -26 14 -10
18 23 19 22 62 -18 20 -19 41 -35 45 -35 5 0 9 -4 9 -10 0 -5 -7 -10 -16 -10
-8 0 -12 -4 -9 -10 3 -5 -1 -10 -9 -10 -9 0 -16 5 -16 10 0 15 -26 12 -40 -5
-8 -10 -31 -15 -66 -15 -41 0 -54 -4 -54 -15 0 -11 -12 -15 -44 -15 -25 0 -48
-5 -51 -11 -5 -6 -12 -4 -21 8 -13 16 -15 17 -27 2 -8 -11 -19 -14 -32 -8 -11
4 -30 5 -41 2 -13 -3 -24 1 -27 11 -9 23 -44 19 -58 -6 -8 -14 -14 -18 -17
-10 -2 7 -20 12 -43 12 -32 0 -39 -3 -39 -20 0 -21 -26 -28 -32 -9 -5 15 -48
-11 -48 -29 0 -10 5 -10 21 -1 15 8 24 8 32 0 7 -7 5 -12 -9 -17 -10 -4 -23
-12 -27 -18 -6 -8 -10 -7 -14 2 -2 7 -22 12 -44 12 -35 0 -39 3 -39 25 0 20
-6 27 -30 32 -16 3 -30 12 -30 19 0 8 -4 14 -9 14 -5 0 -12 6 -14 13 -2 6 -3
0 -1 -15 3 -25 1 -27 -25 -22 l-28 6 7 -54 c5 -35 4 -55 -4 -60 -16 -11 -26
-10 -26 4 0 6 -3 8 -7 4 -5 -4 -8 -18 -8 -29 0 -18 -7 -23 -35 -26 -33 -4 -33
-4 -10 -11 24 -8 24 -8 3 -9 -13 -1 -38 14 -60 35 -20 20 -46 40 -57 44 -17 7
-18 9 -3 9 24 1 22 6 -20 46 -46 42 -54 43 -47 7 l6 -27 -77 2 c-43 2 -85 9
-98 17 -14 9 -53 14 -107 15 -102 1 -136 7 -144 27 -3 8 -19 14 -41 14 -22 0
-38 6 -41 15 -7 17 -59 21 -69 5 -11 -18 -35 -11 -35 10 0 12 -7 20 -16 20
-12 0 -11 5 7 21 l24 20 -22 -6 c-27 -7 -29 0 -8 22 9 9 26 13 41 10 15 -3 23
0 21 7 -2 6 -21 14 -43 17 l-39 6 46 2 c38 1 48 5 57 26 15 32 28 32 46 -2
l15 -28 1 28 c0 25 3 27 44 27 25 0 48 5 51 10 5 7 11 8 19 1 7 -6 34 -7 69
-2 51 7 57 6 57 -11 0 -10 5 -18 10 -18 6 0 10 9 10 20 0 21 35 29 42 9 2 -7
15 -8 38 -2 34 10 34 10 -25 17 -33 3 -82 9 -109 12 -34 5 -47 3 -42 -5 5 -8
0 -8 -18 0 -31 14 -25 29 12 30 l27 1 -25 7 c-15 4 -25 14 -25 26 0 10 -6 20
-13 23 -15 5 -16 32 -1 32 7 0 18 -8 25 -17 12 -17 13 -16 14 5 0 13 6 22 15
22 9 0 18 7 21 15 4 10 19 15 48 14 22 -1 33 -3 24 -6z m419 1 c-3 -3 -12 -4
-19 -1 -8 3 -5 6 6 6 11 1 17 -2 13 -5z m-667 -18 c0 -7 -6 -19 -14 -25 -11
-10 -14 -7 -12 14 1 25 26 36 26 11z m520 -6 c0 -11 -7 -20 -15 -20 -27 0 -18
30 13 39 1 1 2 -8 2 -19z m-618 -12 c-6 -6 -15 -8 -19 -4 -4 4 -1 11 7 16 19
12 27 3 12 -12z m-62 2 c0 -5 -4 -10 -10 -10 -5 0 -10 5 -10 10 0 6 5 10 10
10 6 0 10 -4 10 -10z m725 -11 c0 -8 -11 -15 -25 -16 -14 -1 -19 0 -12 3 6 3
12 12 12 21 0 8 6 13 13 11 6 -3 12 -11 12 -19z m-135 -19 c0 -11 -4 -20 -10
-20 -5 0 -10 9 -10 20 0 11 5 20 10 20 6 0 10 -9 10 -20z m37 -2 c-3 -8 -6 -5
-6 6 -1 11 2 17 5 13 3 -3 4 -12 1 -19z m503 8 c0 -8 -19 -18 -44 -25 -55 -14
-66 -14 -66 -1 0 6 18 10 40 10 29 0 40 4 40 15 0 8 7 15 15 15 8 0 15 -6 15
-14z m-180 -16 c0 -5 -9 -10 -21 -10 -11 0 -17 5 -14 10 3 6 13 10 21 10 8 0
14 -4 14 -10z m-710 -4 c0 -3 -4 -8 -10 -11 -5 -3 -10 -1 -10 4 0 6 5 11 10
11 6 0 10 -2 10 -4z m-110 -38 c0 -5 -6 -8 -14 -8 -8 0 -17 -7 -20 -16 -4 -9
-9 -15 -12 -12 -2 3 3 19 13 36 16 27 32 27 33 0z m60 22 c0 -5 -4 -10 -10
-10 -5 0 -10 5 -10 10 0 6 5 10 10 10 6 0 10 -4 10 -10z m597 -12 c-3 -8 -6
-5 -6 6 -1 11 2 17 5 13 3 -3 4 -12 1 -19z m-87 2 c0 -5 -2 -10 -4 -10 -3 0
-8 5 -11 10 -3 6 -1 10 4 10 6 0 11 -4 11 -10z m198 -17 c2 -8 -5 -13 -16 -13
-28 0 -52 10 -52 22 0 14 63 5 68 -9z m-738 3 c0 -3 -4 -8 -10 -11 -5 -3 -10
-1 -10 4 0 6 5 11 10 11 6 0 10 -2 10 -4z m90 -6 c0 -5 -9 -10 -19 -10 -11 0
-23 5 -26 10 -4 6 5 10 19 10 14 0 26 -4 26 -10z m365 0 c4 -6 -7 -10 -25 -10
-18 0 -29 4 -25 10 3 6 15 10 25 10 10 0 22 -4 25 -10z m405 -6 c0 -8 -5 -12
-10 -9 -6 4 -8 11 -5 16 9 14 15 11 15 -7z m80 6 c0 -5 -9 -10 -20 -10 -11 0
-20 5 -20 10 0 6 9 10 20 10 11 0 20 -4 20 -10z m-420 -8 c0 -12 -49 -37 -57
-29 -3 4 -1 7 5 7 6 0 9 7 6 15 -5 11 1 15 20 15 14 0 26 -4 26 -8z m373 -29
c-7 -2 -19 -2 -25 0 -7 3 -2 5 12 5 14 0 19 -2 13 -5z m-448 -13 c3 -5 15 -10
26 -10 10 0 19 -4 19 -10 0 -11 -30 -13 -54 -4 -9 3 -16 12 -16 20 0 16 16 19
25 4z m255 -50 c0 -13 -7 -20 -20 -20 -19 0 -27 20 -13 33 13 14 33 6 33 -13z
m-910 -104 c0 -2 -7 -6 -15 -10 -8 -3 -15 -1 -15 4 0 6 7 10 15 10 8 0 15 -2
15 -4z m1039 -123 c17 -10 31 -21 31 -25 0 -5 11 -8 25 -8 15 0 25 -6 25 -14
0 -23 -30 -40 -71 -40 -24 -1 -44 -7 -49 -16 -8 -12 -10 -8 -10 13 0 24 3 27
19 22 14 -4 23 0 30 13 9 17 6 20 -19 26 -21 4 -30 11 -30 26 0 25 9 25 49 3z
m203 -15 c-9 -9 -12 -7 -12 12 0 19 3 21 12 12 9 -9 9 -15 0 -24z m-545 -94
c-3 -3 -12 -4 -19 -1 -8 3 -5 6 6 6 11 1 17 -2 13 -5z m-647 -48 c0 -3 -4 -8
-10 -11 -5 -3 -10 -1 -10 4 0 6 5 11 10 11 6 0 10 -2 10 -4z m815 -6 c3 -5 2
-10 -4 -10 -5 0 -16 -3 -25 -6 -11 -4 -16 -1 -16 10 0 18 35 22 45 6z m1098
-7 c-7 -2 -19 -2 -25 0 -7 3 -2 5 12 5 14 0 19 -2 13 -5z m-1953 -17 c0 -8
-61 -12 -66 -4 -3 4 11 8 30 8 20 0 36 -2 36 -4z m1987 -18 c-3 -13 -8 -33
-12 -44 -5 -17 -1 -24 19 -30 17 -6 -19 -8 -100 -7 -138 3 -174 9 -68 12 51 1
71 6 80 19 7 9 23 17 36 17 19 0 23 5 23 28 -1 17 5 27 13 27 10 0 13 -7 9
-22z m-1927 -28 c12 -8 9 -10 -12 -10 -16 0 -28 5 -28 10 0 13 20 13 40 0z
m56 -42 c3 -3 1 -9 -5 -13 -6 -3 -11 -1 -11 4 0 6 -9 11 -20 11 -17 0 -20 -7
-20 -40 0 -22 -3 -41 -7 -41 -5 -1 -24 -3 -43 -5 -19 -2 -47 -6 -62 -8 -16 -3
-28 -1 -28 4 0 6 5 10 10 10 6 0 10 10 9 23 -1 12 -1 36 -1 53 l2 30 85 -11
c47 -7 88 -14 91 -17z m1524 17 c0 -8 -9 -15 -20 -15 -24 0 -25 -6 -6 -26 13
-12 16 -12 24 2 8 14 13 14 33 3 l24 -12 -28 -8 c-58 -16 -82 -14 -105 9 -28
28 -28 32 1 32 12 0 31 7 41 15 25 19 36 19 36 0z m95 -26 c18 0 18 -1 -3 -12
-16 -7 -26 -7 -30 0 -4 5 -14 13 -22 17 -8 3 -4 4 10 1 14 -2 34 -5 45 -6z
m-1380 -52 c1 -16 -2 -30 -6 -33 -15 -9 -59 16 -59 34 0 26 10 33 40 30 20 -2
25 -9 25 -31z m60 13 c10 -11 25 -20 34 -20 14 0 13 -2 -1 -16 -31 -31 -90 1
-74 41 7 20 19 19 41 -5z m585 -21 c0 -5 -4 -9 -10 -9 -5 0 -10 7 -10 16 0 8
5 12 10 9 6 -3 10 -10 10 -16z m-816 -4 c4 -10 -1 -15 -16 -15 -17 0 -18 2 -8
15 7 8 14 15 15 15 2 0 5 -7 9 -15z m731 -5 c3 -5 1 -10 -4 -10 -6 0 -11 5
-11 10 0 6 2 10 4 10 3 0 8 -4 11 -10z m660 0 c3 -5 1 -10 -4 -10 -6 0 -11 5
-11 10 0 6 2 10 4 10 3 0 8 -4 11 -10z m-1302 -17 c-7 -2 -19 -2 -25 0 -7 3
-2 5 12 5 14 0 19 -2 13 -5z m467 -29 c0 -8 -5 -12 -10 -9 -6 4 -8 11 -5 16 9
14 15 11 15 -7z m204 -2 c5 -3 1 -11 -9 -19 -17 -12 -17 -13 11 -14 l29 -1
-33 -8 c-43 -10 -48 -16 -31 -37 12 -15 12 -16 -3 -10 -9 3 -22 -1 -28 -9 -23
-27 -40 -16 -40 26 0 22 -4 40 -10 40 -21 0 -9 27 18 37 25 10 75 8 96 -5z
m130 -11 c21 -23 8 -29 -49 -21 l-40 5 30 17 c38 22 39 22 59 -1z m-1028 0
c-3 -5 -15 -7 -26 -4 -28 7 -25 13 6 13 14 0 23 -4 20 -9z m187 2 c-7 -2 -19
-2 -25 0 -7 3 -2 5 12 5 14 0 19 -2 13 -5z m567 -27 c0 -11 -19 -15 -25 -6 -3
5 1 10 9 10 9 0 16 -2 16 -4z m988 -13 c-4 -20 -18 -26 -37 -14 -18 12 -5 31
20 31 14 0 19 -6 17 -17z m-768 -8 c7 -8 19 -15 26 -15 8 0 14 -4 14 -10 0 -5
-6 -10 -14 -10 -8 0 -18 5 -21 10 -3 6 -15 10 -26 10 -10 0 -19 7 -19 15 0 8
6 15 14 15 7 0 19 -7 26 -15z m888 -2 c5 -18 -28 -29 -38 -12 -5 7 -6 17 -3
22 7 12 35 5 41 -10z m-1223 -13 c4 -6 0 -21 -8 -34 -23 -35 -97 -109 -97 -97
0 6 -7 11 -15 11 -25 0 -16 23 20 55 21 18 35 39 35 52 0 19 6 23 29 23 17 0
33 -5 36 -10z m627 -22 c-9 -9 -12 -7 -12 12 0 19 3 21 12 12 9 -9 9 -15 0
-24z m371 -11 c47 -112 144 -156 229 -104 43 26 72 62 81 98 10 41 34 43 77 7
21 -18 39 -37 39 -42 1 -4 -15 -23 -35 -42 -36 -32 -142 -73 -196 -75 -63 -2
-258 45 -258 63 0 4 -18 11 -40 14 -35 6 -40 10 -39 33 0 14 3 20 6 14 2 -7 9
-13 14 -13 6 0 8 4 5 9 -10 16 60 80 89 81 6 0 18 -19 28 -43z m-1603 8 c0 -8
-9 -15 -20 -15 -20 0 -26 11 -13 23 12 13 33 7 33 -8z m120 -10 c10 -12 9 -16
-5 -21 -19 -8 -40 9 -31 25 10 15 21 14 36 -4z m155 -31 c17 -14 31 -31 31
-37 1 -7 2 -18 3 -24 0 -7 9 -13 19 -14 9 -1 0 -5 -22 -10 -21 -5 -50 -17 -65
-27 -26 -18 -96 -40 -203 -63 -42 -9 -64 -9 -85 -1 -15 6 -46 16 -69 21 -52
14 -124 70 -124 97 0 17 62 64 83 64 10 0 26 -18 38 -45 28 -59 69 -92 123
-100 62 -10 98 1 133 38 31 33 63 90 63 114 0 22 43 15 75 -13z m1025 10 c0
-10 -7 -14 -22 -12 -32 5 -35 28 -4 28 17 0 26 -5 26 -16z m60 -3 c0 -11 -4
-23 -10 -26 -6 -4 -10 5 -10 19 0 14 5 26 10 26 6 0 10 -9 10 -19z m-557 -16
c1 -5 -6 -11 -15 -13 -11 -2 -18 3 -18 13 0 17 30 18 33 0z m-1861 -32 c26
-23 24 -63 -3 -63 -12 0 -23 -8 -26 -19 -3 -12 -11 -17 -19 -14 -16 6 -20 83
-4 83 6 0 10 7 10 15 0 20 19 19 42 -2z m1413 -3 c3 -5 -1 -10 -10 -10 -9 0
-13 5 -10 10 3 6 8 10 10 10 2 0 7 -4 10 -10z m35 -30 c0 -5 -9 -10 -21 -10
-11 0 -17 5 -14 10 3 6 13 10 21 10 8 0 14 -4 14 -10z m-1646 -94 c-4 -25 -11
-46 -15 -46 -11 0 -12 104 -2 114 14 13 23 -23 17 -68z m2786 50 c0 -10 -10
-14 -30 -14 -33 1 -40 14 -12 21 32 9 42 7 42 -7z m-716 -5 c3 -5 -1 -11 -9
-15 -15 -6 -29 7 -18 18 9 9 21 8 27 -3z m-539 -40 c3 -5 -8 -16 -25 -24 -16
-9 -32 -12 -35 -7 -5 8 11 24 35 33 8 3 16 6 17 6 1 1 4 -3 8 -8z m65 -1 c0
-5 -2 -10 -4 -10 -3 0 -8 5 -11 10 -3 6 -1 10 4 10 6 0 11 -4 11 -10z m480
-46 c0 -2 -8 -4 -17 -4 -22 0 -63 -42 -63 -63 0 -18 -27 -30 -36 -16 -3 6 3
24 15 40 12 16 19 34 16 39 -3 6 1 7 9 4 9 -3 16 -1 16 5 0 6 -4 11 -10 11
-17 0 -11 28 8 32 14 3 62 -33 62 -48z m1087 50 c-3 -3 -12 -4 -19 -1 -8 3 -5
6 6 6 11 1 17 -2 13 -5z m-127 -14 c0 -5 -4 -10 -10 -10 -5 0 -10 5 -10 10 0
6 5 10 10 10 6 0 10 -4 10 -10z m86 -24 c11 -11 11 -16 1 -19 -6 -3 -2 -6 10
-6 31 -1 40 -21 9 -21 -14 0 -26 -4 -26 -10 0 -5 18 -10 40 -10 45 0 54 -16
13 -23 -16 -2 2 -5 40 -6 60 -1 67 -3 67 -21 0 -17 7 -20 40 -20 33 0 40 -3
40 -20 0 -11 7 -20 15 -20 18 0 65 -47 65 -65 0 -8 8 -15 18 -15 16 0 18 -14
19 -158 l2 -159 -56 -14 c-44 -10 -58 -10 -61 -1 -2 7 -21 12 -44 12 l-40 0 4
-77 c3 -43 3 -61 1 -40 l-4 37 -50 0 -49 0 0 40 c0 34 -3 40 -21 40 -20 0 -21
-3 -14 -80 l7 -80 -36 0 -36 0 0 -49 c0 -37 -4 -50 -17 -56 -10 -3 -19 -1 -21
4 -2 6 -10 11 -18 11 -19 0 -18 19 1 26 8 4 15 13 15 21 0 15 -23 15 -62 -2
-13 -5 -18 -3 -18 9 0 9 7 16 15 16 8 0 15 5 15 10 0 6 11 10 25 10 18 0 25 5
25 20 0 17 7 20 40 20 33 0 40 3 40 20 0 17 -7 20 -40 20 l-40 0 0 84 0 84 30
7 c31 7 42 25 15 25 -29 0 -15 18 23 28 l37 10 -52 1 c-40 1 -53 5 -53 16 0 8
-6 15 -14 15 -7 0 -19 7 -26 15 -21 25 -40 18 -40 -15 0 -16 -4 -30 -10 -30
-5 0 -10 18 -10 40 0 33 -3 40 -20 40 -17 0 -20 -7 -20 -40 0 -22 5 -40 10
-40 6 0 10 -18 10 -40 0 -33 3 -40 19 -40 13 0 21 8 23 22 3 22 3 22 22 2 20
-19 20 -19 -2 -22 -13 -2 -22 -11 -22 -20 0 -10 -9 -23 -20 -30 -34 -21 -22
-32 35 -32 l55 0 0 -40 c0 -39 -1 -40 -35 -40 -19 0 -35 4 -35 9 0 5 -37 12
-82 16 -78 7 -82 8 -60 22 39 26 22 73 -26 73 -15 0 -26 7 -29 20 -3 11 -9 20
-14 20 -5 0 -9 16 -9 36 0 56 -15 74 -60 74 -22 0 -40 5 -40 10 0 6 18 10 40
10 47 0 50 12 13 45 l-28 24 24 23 c16 16 25 19 28 11 3 -8 22 -13 44 -13 32
0 39 -3 39 -20 0 -17 -7 -20 -40 -20 -45 0 -49 -8 -20 -35 19 -17 21 -17 40 0
19 18 20 17 20 -3 0 -19 6 -22 40 -22 32 0 40 4 40 18 0 11 12 24 26 30 30 14
23 32 -13 32 -16 0 -27 7 -30 19 -3 11 -15 21 -26 23 -12 2 -29 18 -41 41 -12
22 -27 37 -38 37 -14 0 -18 8 -18 40 0 33 3 40 20 40 17 0 20 -7 20 -40 0 -29
4 -40 15 -40 11 0 15 11 15 40 0 39 1 40 34 40 19 0 36 5 38 10 2 7 15 6 36
-2 28 -11 35 -10 43 2 8 11 12 12 16 3 8 -20 53 -16 54 5 1 16 2 16 6 0 6 -25
19 -22 18 5 0 12 5 22 10 22 6 0 10 -10 10 -22 -1 -13 2 -23 6 -23 4 0 16 -3
26 -6 11 -4 14 -3 7 3 -19 14 -22 37 -7 66 8 16 9 27 3 27 -5 0 -10 5 -10 10
0 14 9 12 26 -4z m-1856 -27 c0 -12 -61 -11 -79 0 -7 5 -11 13 -7 19 7 12 86
-6 86 -19z m-1000 11 c12 -8 11 -10 -7 -10 -13 0 -23 5 -23 10 0 13 11 13 30
0z m1047 -6 c-3 -3 -12 -4 -19 -1 -8 3 -5 6 6 6 11 1 17 -2 13 -5z m293 -35
c0 -38 -1 -40 -17 -23 -13 13 -14 19 -5 22 6 2 12 12 12 23 0 10 2 19 5 19 3
0 5 -18 5 -41z m2578 -5 c2 -10 10 -24 19 -31 11 -9 12 -16 5 -30 -10 -16 -11
-16 -21 9 -5 14 -15 29 -20 33 -6 3 -11 15 -11 26 0 26 24 20 28 -7z m-3018
-25 c0 -6 12 -8 33 -5 24 5 27 4 12 -3 -11 -6 -14 -10 -6 -10 11 -1 11 -4 1
-16 -17 -21 -7 -29 18 -16 12 6 33 11 49 10 15 0 22 -3 16 -6 -31 -12 -7 -20
63 -21 56 0 77 3 81 14 3 9 20 14 44 14 35 0 39 -3 39 -25 0 -14 5 -25 10 -25
6 0 10 -18 10 -40 0 -36 -2 -40 -26 -40 -18 0 -25 -5 -22 -17 4 -22 28 -29 28
-9 0 12 10 16 40 16 35 0 40 3 40 23 1 20 2 21 14 5 7 -10 18 -18 25 -18 6 0
11 -4 11 -10 0 -5 -4 -10 -10 -10 -5 0 -10 -9 -10 -20 0 -11 5 -20 10 -20 17
0 11 -16 -16 -43 -20 -20 -27 -39 -31 -86 -6 -67 -21 -81 -59 -56 -34 22 -38
19 -14 -16 26 -35 59 -36 76 -1 10 21 12 21 18 5 5 -12 0 -24 -16 -38 -33 -28
-78 -100 -78 -125 0 -17 -7 -20 -40 -20 -33 0 -40 3 -40 20 0 29 -17 25 -24
-6 -6 -21 -12 -25 -31 -21 -19 3 -25 0 -25 -14 0 -14 7 -19 25 -19 14 0 25 -5
25 -11 0 -8 14 -10 40 -6 40 5 45 2 34 -27 -4 -10 -18 -16 -40 -16 -19 0 -34
-4 -34 -10 0 -5 -11 -10 -25 -10 -34 0 -32 -18 3 -22 23 -3 27 -8 26 -33 0
-35 -24 -105 -36 -105 -4 0 -11 -18 -14 -40 -6 -39 -8 -40 -45 -40 -35 0 -39
-3 -39 -24 0 -44 -10 -56 -46 -56 -34 0 -42 8 -25 25 18 19 23 55 8 55 -14 0
-37 -40 -37 -65 0 -8 -5 -15 -11 -15 -8 0 -9 12 -4 37 9 49 25 79 34 65 4 -6
17 -9 29 -5 26 6 20 23 -9 23 -27 0 -24 30 4 31 19 1 19 2 3 6 -39 10 -62 56
-33 66 7 2 8 8 3 13 -5 5 -11 4 -13 -3 -6 -17 -31 -16 -49 1 -18 19 -18 26 1
26 8 0 15 9 15 20 0 11 -7 20 -15 20 -25 0 -17 16 25 54 22 20 40 38 40 41 0
3 -13 5 -30 5 -16 0 -30 5 -30 10 0 6 14 10 30 10 22 0 30 5 31 18 0 10 3 12
6 5 6 -15 53 -17 53 -3 0 6 -8 14 -17 17 -26 9 -33 23 -33 66 0 21 -5 37 -11
37 -8 0 -10 -17 -7 -50 5 -49 5 -50 -23 -50 -16 0 -29 5 -29 10 0 6 -4 10 -10
10 -5 0 -7 -13 -4 -28 4 -19 0 -34 -10 -45 -9 -8 -16 -20 -16 -24 0 -5 -6 -18
-14 -28 -12 -16 -16 -17 -30 -6 -9 7 -16 26 -16 42 0 22 -5 29 -19 29 -11 0
-23 -4 -26 -10 -10 -16 -35 -12 -35 5 0 8 5 24 12 35 7 10 8 23 4 27 -5 4 -11
2 -13 -4 -6 -15 -83 -18 -83 -3 0 6 -9 10 -21 10 -20 0 -21 3 -14 80 8 88 9
86 -61 81 -19 -2 -22 4 -26 46 -4 48 6 67 30 58 6 -2 12 0 12 5 0 6 -7 10 -15
10 -8 0 -19 8 -24 19 -13 23 34 101 61 101 14 0 18 8 18 41 0 36 3 40 21 37
15 -2 35 10 60 36 22 21 37 41 35 45 -2 3 38 5 90 4 57 -2 94 1 94 7 0 6 7 10
15 10 8 0 15 -5 15 -11z m107 -5 c-3 -3 -12 -4 -19 -1 -8 3 -5 6 6 6 11 1 17
-2 13 -5z m789 -69 c-15 -15 -46 -21 -46 -8 0 4 12 17 28 29 21 17 28 19 30 8
2 -8 -3 -21 -12 -29z m-486 -55 c0 -22 -4 -40 -10 -40 -5 0 -10 18 -10 40 0
22 5 40 10 40 6 0 10 -18 10 -40z m1165 1 c42 -9 47 -41 6 -41 -21 0 -31 5
-31 15 0 11 -11 15 -40 15 -22 0 -40 5 -40 10 0 11 57 12 105 1z m-1069 -38
c-10 -10 -19 5 -10 18 6 11 8 11 12 0 2 -7 1 -15 -2 -18z m-36 -172 c0 -5 -9
-19 -20 -32 l-19 -24 -1 33 c0 25 4 32 20 32 11 0 20 -4 20 -9z m360 -21 c0
-5 -2 -10 -4 -10 -3 0 -8 5 -11 10 -3 6 -1 10 4 10 6 0 11 -4 11 -10z m283
-24 c12 -13 33 -26 46 -28 18 -2 32 -18 52 -56 17 -32 30 -49 34 -41 4 6 1 15
-6 20 -24 15 -3 20 25 5 25 -13 26 -15 11 -30 -17 -16 -27 -20 -56 -17 -32 3
-69 -18 -69 -39 0 -12 -4 -19 -10 -15 -5 3 -7 12 -3 20 3 10 -1 15 -15 15 -31
0 -52 -11 -52 -26 0 -16 -16 -19 -25 -4 -3 6 -18 10 -33 10 -26 1 -26 1 -8 15
16 12 17 15 4 15 -8 0 -21 -7 -28 -15 -7 -8 -27 -15 -44 -14 -29 1 -30 1 -6 8
l25 7 -22 12 c-13 7 -23 9 -23 5 0 -5 -9 -14 -21 -21 -17 -11 -23 -11 -36 0
-13 10 -17 10 -20 1 -7 -19 -23 -16 -42 8 -12 15 -32 23 -67 26 -45 4 -50 2
-60 -21 -9 -19 -9 -26 0 -29 13 -5 -39 -28 -74 -32 -14 -2 -49 -6 -77 -10 -43
-5 -53 -4 -53 9 0 8 6 21 13 28 7 7 16 21 20 31 4 10 11 15 17 12 5 -3 20 1
32 9 12 9 32 16 45 16 12 0 25 5 28 10 3 6 22 10 41 10 33 0 34 1 35 43 l1 42
10 -45 11 -45 13 30 c7 17 13 36 14 43 0 6 3 11 8 10 7 -1 21 4 68 22 11 4 36
5 53 1 40 -8 201 9 201 21 0 16 21 8 43 -16z m458 -69 c24 -6 25 -37 2 -37
-20 0 -46 47 -35 64 4 7 8 5 10 -5 2 -10 12 -19 23 -22z m-196 -81 c11 -7 37
-16 58 -20 34 -6 38 -10 35 -34 -2 -21 -9 -28 -32 -30 -16 -2 -33 1 -39 7 -5
5 -22 7 -37 4 -20 -4 -34 1 -49 16 -27 27 -27 33 7 53 33 21 33 21 57 4z m370
-46 c-3 -5 -13 -10 -21 -10 -8 0 -14 5 -14 10 0 6 9 10 21 10 11 0 17 -4 14
-10z m422 -52 c-2 -13 -4 -3 -4 22 0 25 2 35 4 23 2 -13 2 -33 0 -45z m-377
22 c0 -21 -15 -27 -25 -10 -7 12 2 30 16 30 5 0 9 -9 9 -20z m-1340 -34 c0
-15 -18 -31 -26 -23 -7 7 7 37 17 37 5 0 9 -6 9 -14z m413 -13 c-7 -2 -19 -2
-25 0 -7 3 -2 5 12 5 14 0 19 -2 13 -5z m1087 -124 c0 -25 -33 -22 -38 4 -2
12 3 17 17 17 15 0 21 -6 21 -21z m-2148 -73 c-3 -5 -9 -1 -13 10 -12 31 -10
39 5 19 8 -11 12 -24 8 -29z m862 23 c40 -24 39 -39 -4 -39 -27 0 -40 15 -40
46 0 18 2 18 44 -7z m646 11 c0 -6 -59 -30 -72 -30 -3 0 -8 8 -10 18 -4 14 2
17 39 17 23 0 43 -2 43 -5z m-1340 -30 c0 -11 -4 -20 -9 -20 -14 0 -23 18 -16
30 10 17 25 11 25 -10z m1037 -10 c-1 -16 -7 -32 -14 -34 -8 -3 -10 1 -6 12 6
15 5 15 -10 3 -15 -12 -22 -12 -42 -1 -36 20 -31 38 13 43 20 2 42 4 49 5 8 1
11 -9 10 -28z m-999 -37 c-2 -21 -9 -29 -28 -31 -25 -4 -62 -37 -73 -67 -4 -9
-11 -13 -17 -10 -15 9 -12 35 3 35 10 0 13 13 12 45 -2 50 6 56 29 23 9 -12
16 -17 16 -10 0 19 23 41 43 42 14 0 18 -6 15 -27z m1817 -3 c-3 -5 -13 -10
-21 -10 -8 0 -14 5 -14 10 0 6 9 10 21 10 11 0 17 -4 14 -10z m93 -7 c-5 -25
-25 -27 -38 -4 -10 19 -8 21 15 21 19 0 26 -5 23 -17z m-48 -23 c0 -11 -6 -20
-14 -20 -18 0 -29 16 -21 30 11 18 35 11 35 -10z m-1998 -32 c-2 -21 -8 -35
-13 -32 -13 8 -11 48 3 62 15 15 16 14 10 -30z m534 18 c7 -18 -31 -62 -40
-48 -8 14 11 62 24 62 6 0 13 -7 16 -14z m-136 -45 c0 -37 -2 -40 -26 -38 -15
1 -29 -4 -31 -10 -3 -7 2 -13 11 -13 12 0 16 -10 16 -40 0 -33 -3 -40 -20 -40
-12 0 -17 -5 -14 -14 3 -8 1 -17 -5 -21 -8 -4 -11 23 -11 85 0 90 0 90 24 84
26 -6 46 13 26 26 -10 6 -8 9 6 13 10 2 20 5 22 6 1 0 2 -17 2 -38z m1555 29
c3 -5 -3 -10 -14 -10 -12 0 -21 5 -21 10 0 6 6 10 14 10 8 0 18 -4 21 -10z
m-1865 -20 c0 -5 -2 -10 -4 -10 -3 0 -8 5 -11 10 -3 6 -1 10 4 10 6 0 11 -4
11 -10z m1058 -27 l37 -17 -29 -4 c-16 -2 -32 2 -36 8 -6 9 -9 9 -15 0 -5 -8
-1 -18 8 -25 10 -7 16 -23 16 -36 -1 -17 -3 -19 -6 -6 -5 20 -79 25 -86 5 -2
-8 -8 -9 -13 -4 -5 5 -4 11 4 13 6 3 12 11 12 18 0 7 6 15 13 18 10 4 10 7 0
18 -7 7 -13 17 -13 21 0 14 70 8 108 -9z m-108 -13 c0 -5 -4 -10 -10 -10 -5 0
-10 5 -10 10 0 6 5 10 10 10 6 0 10 -4 10 -10z m-490 -21 c0 -5 -7 -9 -15 -9
-15 0 -20 12 -9 23 8 8 24 -1 24 -14z m434 -4 c3 -9 0 -15 -9 -15 -16 0 -27
14 -18 24 10 10 21 7 27 -9z m271 -18 c10 -8 15 -19 11 -25 -11 -18 -20 -14
-33 13 -12 28 -6 32 22 12z m-295 -17 c0 -5 6 -7 14 -4 17 7 27 -8 17 -24 -10
-17 -51 -3 -51 19 0 11 5 19 10 19 6 0 10 -4 10 -10z m645 -20 c3 -5 2 -10 -4
-10 -5 0 -13 5 -16 10 -3 6 -2 10 4 10 5 0 13 -4 16 -10z m-467 -41 c27 -34
20 -37 -26 -9 -18 11 -44 20 -58 20 -14 0 -22 4 -19 10 3 6 23 10 43 9 29 0
42 -7 60 -30z m-558 6 c0 -12 -19 -12 -23 0 -4 9 -1 12 9 8 7 -3 14 -7 14 -8z
m-205 -15 c3 -5 -1 -10 -10 -10 -9 0 -13 5 -10 10 3 6 8 10 10 10 2 0 7 -4 10
-10z m838 -90 c7 0 23 7 35 16 20 13 28 14 54 3 23 -9 32 -9 37 0 6 9 15 8 37
-4 16 -8 35 -15 41 -15 18 0 103 -43 103 -51 0 -19 -23 -18 -62 1 -23 11 -58
20 -78 20 -20 0 -41 5 -47 11 -11 11 -53 4 -53 -10 0 -9 -96 2 -106 12 -4 3
-3 14 1 24 5 10 9 21 10 26 6 21 8 20 12 -5 2 -16 10 -28 16 -28z m-311 21 c2
-5 19 -11 38 -14 19 -2 47 -10 63 -17 29 -14 52 -5 27 10 -8 5 -11 12 -7 16 4
4 15 1 23 -8 26 -26 0 -47 -46 -37 -60 13 -194 4 -221 -14 -13 -10 -33 -17
-46 -17 -12 0 -25 -4 -28 -10 -3 -5 -19 -10 -36 -10 -16 0 -29 -5 -29 -11 0
-5 -5 -7 -11 -3 -16 9 36 55 54 48 8 -3 18 0 22 5 3 6 11 9 16 5 5 -3 17 0 26
7 20 17 82 39 111 39 12 0 22 5 22 10 0 12 17 13 22 1z m413 -71 c-27 -12 -43
-12 -25 0 8 5 22 9 30 9 10 0 8 -3 -5 -9z m-725 -71 c0 -5 -7 -9 -15 -9 -8 0
-15 7 -15 15 0 9 6 12 15 9 8 -4 15 -10 15 -15z m504 -5 c18 -7 21 -39 5 -49
-14 -9 -21 -1 -24 30 -4 28 -3 28 19 19z m33 -36 c-3 -7 -5 -2 -5 12 0 14 2
19 5 13 2 -7 2 -19 0 -25z m-27 -38 c0 -5 -5 -10 -11 -10 -5 0 -7 5 -4 10 3 6
8 10 11 10 2 0 4 -4 4 -10z m26 -97 c-3 -17 -26 -26 -26 -10 0 4 0 12 0 17 0
6 6 10 14 10 8 0 13 -8 12 -17z m-600 -40 c-10 -10 -19 5 -10 18 6 11 8 11 12
0 2 -7 1 -15 -2 -18z m144 1 c249 -14 379 -25 405 -33 17 -6 75 -15 129 -21
95 -10 124 -18 100 -27 -6 -2 -20 -11 -30 -19 -18 -15 -18 -15 -1 -10 10 3 35
6 55 6 33 1 35 2 20 14 -10 7 -18 16 -18 20 0 12 28 6 40 -9 7 -8 21 -15 31
-15 11 0 19 7 19 15 0 21 16 19 41 -6 l22 -22 -33 -13 c-26 -11 -30 -17 -21
-28 13 -16 -4 -26 -45 -26 -15 0 -24 -6 -24 -15 0 -8 -7 -15 -15 -15 -18 0
-20 -16 -4 -26 18 -11 -13 -25 -42 -19 -15 4 -30 0 -37 -8 -14 -17 -98 -22
-107 -6 -5 7 -13 -1 -23 -20 -12 -25 -19 -30 -36 -25 -11 4 -48 10 -81 13 -42
5 -59 10 -57 19 1 8 -2 11 -8 7 -6 -4 -17 -1 -25 5 -16 13 -50 6 -41 -8 5 -9
-36 -5 -64 5 -8 4 -17 7 -20 7 -3 1 -12 6 -20 11 -8 5 -24 9 -35 10 -13 0 -21
8 -23 22 -2 14 -11 23 -25 25 -14 2 -22 10 -22 23 0 13 -6 20 -17 19 -21 -2
-24 12 -5 19 8 3 40 8 71 12 56 7 86 24 86 48 0 9 -2 9 -8 0 -10 -16 -122 -30
-122 -15 0 6 5 14 10 17 15 9 12 35 -4 35 -8 0 -29 -16 -47 -35 -19 -19 -40
-35 -49 -35 -13 0 -13 -1 0 -10 8 -5 12 -10 8 -10 -3 0 -13 -3 -22 -6 -11 -4
-16 -1 -16 10 0 13 -6 15 -27 10 -21 -4 -24 -3 -13 5 12 8 13 14 4 29 -20 32
26 98 61 87 11 -4 49 -8 85 -11z m856 -19 c20 -20 38 -19 30 1 -4 11 -1 14 11
12 25 -5 27 -25 2 -31 -25 -7 -69 8 -69 23 0 14 9 13 26 -5z m-133 -2 c-7 -2
-19 -2 -25 0 -7 3 -2 5 12 5 14 0 19 -2 13 -5z m-69 -12 c14 -5 16 -10 8 -15
-7 -4 -22 0 -34 8 -24 17 -9 21 26 7z m83 -7 c-3 -3 -12 -4 -19 -1 -8 3 -5 6
6 6 11 1 17 -2 13 -5z m89 -8 c18 -14 18 -15 1 -22 -13 -4 -26 0 -40 15 -21
21 -21 21 -1 21 11 0 29 -6 40 -14z m-1002 -66 c-7 -6 -24 22 -23 40 0 9 6 5
14 -10 7 -14 11 -27 9 -30z m90 -109 c3 -5 -1 -11 -9 -15 -9 -3 -15 0 -15 9 0
16 16 20 24 6z m181 -41 c3 -5 1 -10 -4 -10 -6 0 -11 5 -11 10 0 6 2 10 4 10
3 0 8 -4 11 -10z m-443 -32 c-7 -7 -12 -8 -12 -2 0 14 12 26 19 19 2 -3 -1
-11 -7 -17z m505 -2849 c8 -8 30 -8 82 2 76 13 136 4 161 -26 24 -29 1 -36
-118 -32 -125 4 -187 22 -176 52 7 18 35 20 51 4z m288 -129 c33 -34 39 -94
15 -146 -18 -40 -87 -84 -131 -84 -94 0 -169 128 -106 181 48 42 119 73 178
78 8 0 28 -12 44 -29z m-493 -635 c-5 -64 -17 -77 -43 -46 -35 43 -19 105 26
99 18 -3 20 -9 17 -53z m-7 -195 c0 -52 -1 -55 -25 -55 -23 0 -25 4 -26 50 -1
61 2 67 29 63 20 -3 22 -9 22 -58z"/>
<path d="M3805 10440 c-13 -6 -15 -9 -5 -9 8 0 22 4 30 9 18 12 2 12 -25 0z"/>
<path d="M3730 10260 c0 -11 5 -20 10 -20 6 0 10 9 10 20 0 11 -4 20 -10 20
-5 0 -10 -9 -10 -20z"/>
<path d="M3813 10273 c9 -2 25 -2 35 0 9 3 1 5 -18 5 -19 0 -27 -2 -17 -5z"/>
<path d="M4035 10260 c-3 -11 -3 -30 0 -41 7 -20 5 -21 -26 -15 -24 4 -30 3
-19 -4 11 -7 3 -10 -29 -10 -24 0 -42 -3 -38 -6 3 -3 40 -3 82 1 43 4 72 11
65 15 -7 4 -9 13 -5 19 9 15 -2 61 -15 61 -5 0 -12 -9 -15 -20z"/>
<path d="M4000 10240 c0 -19 3 -21 12 -12 9 9 9 15 0 24 -9 9 -12 7 -12 -12z"/>
<path d="M3818 10243 c7 -3 16 -2 19 1 4 3 -2 6 -13 5 -11 0 -14 -3 -6 -6z"/>
<path d="M3880 10230 c-13 -8 -13 -10 2 -10 9 0 20 5 23 10 8 13 -5 13 -25 0z"/>
<path d="M3760 10220 c0 -5 7 -10 16 -10 8 0 12 5 9 10 -3 6 -10 10 -16 10 -5
0 -9 -4 -9 -10z"/>
<path d="M3825 10190 c-4 -7 -3 -15 2 -19 6 -3 13 -13 16 -21 4 -11 6 -9 6 5
1 29 -14 51 -24 35z"/>
<path d="M3928 10153 c7 -3 16 -2 19 1 4 3 -2 6 -13 5 -11 0 -14 -3 -6 -6z"/>
<path d="M3860 10020 c20 -13 60 -13 60 0 0 6 -17 10 -37 10 -28 0 -34 -3 -23
-10z"/>
<path d="M3772 9912 c1 -9 -1 -22 -4 -28 -5 -7 1 -10 17 -6 13 2 25 11 27 20
3 14 5 14 20 -1 9 -9 22 -17 28 -17 6 0 8 -4 5 -10 -3 -5 1 -10 9 -10 22 0 20
5 -11 37 -33 33 -96 44 -91 15z"/>
<path d="M3818 9863 c7 -3 16 -2 19 1 4 3 -2 6 -13 5 -11 0 -14 -3 -6 -6z"/>
<path d="M3725 9760 c-8 -13 -1 -24 14 -19 6 3 7 10 2 18 -6 10 -10 10 -16 1z"/>
<path d="M4720 9760 c0 -12 24 -12 60 0 21 7 19 8 -17 9 -24 1 -43 -3 -43 -9z"/>
<path d="M3978 9753 c7 -3 16 -2 19 1 4 3 -2 6 -13 5 -11 0 -14 -3 -6 -6z"/>
<path d="M3995 9730 c-3 -5 1 -10 10 -10 9 0 13 5 10 10 -3 6 -8 10 -10 10 -2
0 -7 -4 -10 -10z"/>
<path d="M4540 9734 c0 -27 90 -48 105 -24 4 6 -12 10 -39 10 -25 0 -46 5 -46
10 0 6 -4 10 -10 10 -5 0 -10 -3 -10 -6z"/>
<path d="M4138 9723 c7 -3 16 -2 19 1 4 3 -2 6 -13 5 -11 0 -14 -3 -6 -6z"/>
<path d="M4728 9723 c7 -3 16 -2 19 1 4 3 -2 6 -13 5 -11 0 -14 -3 -6 -6z"/>
<path d="M4080 9710 c0 -5 5 -10 10 -10 6 0 10 5 10 10 0 6 -4 10 -10 10 -5 0
-10 -4 -10 -10z"/>
<path d="M4288 9673 c6 -2 18 -2 25 0 6 3 1 5 -13 5 -14 0 -19 -2 -12 -5z"/>
<path d="M4418 9663 c12 -2 32 -2 45 0 12 2 2 4 -23 4 -25 0 -35 -2 -22 -4z"/>
<path d="M5120 9660 c0 -5 9 -10 21 -10 11 0 17 5 14 10 -3 6 -13 10 -21 10
-8 0 -14 -4 -14 -10z"/>
<path d="M4348 9633 c6 -2 18 -2 25 0 6 3 1 5 -13 5 -14 0 -19 -2 -12 -5z"/>
<path d="M4530 9636 c0 -1 5 -17 11 -34 10 -28 12 -30 40 -20 36 12 37 26 4
34 -14 3 -25 10 -25 15 0 5 -7 9 -15 9 -8 0 -15 -2 -15 -4z"/>
<path d="M3985 9610 c-3 -5 -1 -10 4 -10 6 0 11 5 11 10 0 6 -2 10 -4 10 -3 0
-8 -4 -11 -10z"/>
<path d="M4322 9600 c0 -14 2 -19 5 -12 2 6 2 18 0 25 -3 6 -5 1 -5 -13z"/>
<path d="M4460 9575 c0 -8 5 -15 10 -15 6 0 10 7 10 15 0 8 -4 15 -10 15 -5 0
-10 -7 -10 -15z"/>
<path d="M3904 9558 c-7 -10 54 -8 86 2 18 6 11 8 -28 7 -30 -1 -56 -5 -58 -9z"/>
<path d="M4020 9549 c0 -5 5 -7 10 -4 6 3 10 8 10 11 0 2 -4 4 -10 4 -5 0 -10
-5 -10 -11z"/>
<path d="M4285 9540 c3 -5 13 -10 21 -10 8 0 14 5 14 10 0 6 -9 10 -21 10 -11
0 -17 -4 -14 -10z"/>
<path d="M3935 9530 c-15 -7 -10 -9 23 -9 23 -1 42 4 42 9 0 12 -37 12 -65 0z"/>
<path d="M4184 9487 c-8 -21 2 -35 16 -21 5 5 6 15 0 24 -8 12 -10 12 -16 -3z"/>
<path d="M4226 9441 c-4 -7 -5 -15 -2 -18 9 -9 19 4 14 18 -4 11 -6 11 -12 0z"/>
<path d="M5120 8658 c0 -19 2 -20 10 -8 13 19 13 30 0 30 -5 0 -10 -10 -10
-22z"/>
<path d="M5673 8395 c0 -27 2 -38 4 -22 2 15 2 37 0 50 -2 12 -4 0 -4 -28z"/>
<path d="M5026 8364 c-10 -25 -7 -84 4 -84 6 0 10 23 10 50 0 52 -4 61 -14 34z"/>
<path d="M5420 8320 c0 -5 5 -10 10 -10 6 0 10 5 10 10 0 6 -4 10 -10 10 -5 0
-10 -4 -10 -10z"/>
<path d="M5652 8228 c-18 -18 -15 -28 8 -28 13 0 20 7 20 20 0 23 -10 26 -28
8z"/>
<path d="M3448 8603 c6 -2 18 -2 25 0 6 3 1 5 -13 5 -14 0 -19 -2 -12 -5z"/>
<path d="M3578 8603 c7 -3 16 -2 19 1 4 3 -2 6 -13 5 -11 0 -14 -3 -6 -6z"/>
<path d="M3505 8590 c3 -5 8 -10 11 -10 2 0 4 5 4 10 0 6 -5 10 -11 10 -5 0
-7 -4 -4 -10z"/>
<path d="M3670 8580 c0 -11 -8 -23 -17 -27 -22 -8 -53 -39 -53 -52 0 -6 16 -3
35 7 21 10 35 24 35 36 0 11 3 16 7 13 3 -4 12 -2 20 4 10 9 10 15 2 25 -16
20 -29 17 -29 -6z"/>
<path d="M3636 8423 c-16 -9 -45 -32 -65 -52 -20 -20 -45 -36 -56 -36 -11 0
-21 -8 -23 -17 -2 -12 3 -18 13 -18 13 0 16 -8 14 -37 -3 -57 -1 -63 21 -63
17 0 20 7 20 39 0 22 -5 41 -11 43 -17 6 32 78 53 78 9 0 19 4 22 9 3 5 18 12
33 16 15 3 37 17 50 31 l22 24 -32 -1 c-18 -1 -45 -8 -61 -16z"/>
<path d="M3725 8370 c-3 -5 -4 -10 -1 -10 2 0 11 -3 20 -6 11 -4 16 -1 16 10
0 18 -25 22 -35 6z"/>
<path d="M3370 8345 c-14 -16 -6 -35 16 -35 8 0 14 10 14 25 0 28 -12 32 -30
10z"/>
<path d="M3671 8350 c-1 -21 16 -46 26 -37 4 5 3 11 -3 15 -6 4 -14 14 -17 22
-5 13 -5 13 -6 0z"/>
<path d="M3440 8290 c0 -5 -8 -10 -19 -10 -10 0 -21 -9 -24 -20 -3 -12 -14
-20 -25 -20 -16 0 -32 -17 -32 -36 0 -2 13 -4 29 -4 20 0 30 6 34 20 5 20 37
29 37 10 0 -5 5 -10 10 -10 6 0 10 8 10 19 0 11 9 21 21 24 20 5 20 7 6 21
-17 18 -47 21 -47 6z"/>
<path d="M3757 8214 c-3 -3 -3 -12 0 -20 4 -11 9 -12 19 -3 8 6 11 15 8 20 -6
10 -18 12 -27 3z"/>
<path d="M3600 8190 c0 -5 9 -10 20 -10 11 0 20 5 20 10 0 6 -9 10 -20 10 -11
0 -20 -4 -20 -10z"/>
<path d="M3640 8149 c0 -18 2 -19 15 -9 15 12 12 30 -6 30 -5 0 -9 -10 -9 -21z"/>
<path d="M3702 8140 c-11 -18 -10 -20 13 -20 18 0 25 5 25 20 0 11 -6 20 -13
20 -7 0 -18 -9 -25 -20z"/>
<path d="M3440 7983 c0 -13 5 -23 10 -23 13 0 13 11 0 30 -8 12 -10 11 -10 -7z"/>
<path d="M4400 8270 c0 -13 11 -13 30 0 12 8 11 10 -7 10 -13 0 -23 -4 -23
-10z"/>
<path d="M3863 7080 c-33 -20 -41 -34 -24 -44 12 -8 80 36 81 52 0 17 -20 15
-57 -8z"/>
<path d="M4160 7031 c0 -6 -7 -8 -15 -5 -19 8 -20 -19 -1 -35 10 -8 16 -9 21
-1 9 14 62 13 68 -2 3 -7 6 -3 6 10 1 16 -5 22 -20 22 -11 0 -29 5 -40 10 -12
7 -19 7 -19 1z"/>
<path d="M4510 6990 c0 -5 5 -10 10 -10 6 0 10 5 10 10 0 6 -4 10 -10 10 -5 0
-10 -4 -10 -10z"/>
<path d="M4611 6981 c14 -11 26 -15 28 -9 4 12 -17 28 -38 28 -8 0 -3 -8 10
-19z"/>
<path d="M4038 6983 c7 -3 16 -2 19 1 4 3 -2 6 -13 5 -11 0 -14 -3 -6 -6z"/>
<path d="M4312 6960 c0 -14 2 -19 5 -12 2 6 2 18 0 25 -3 6 -5 1 -5 -13z"/>
<path d="M1000 5232 c-100 -62 -170 -113 -170 -124 0 -13 8 -10 82 35 39 23
80 47 91 54 12 7 26 18 32 25 6 7 19 18 30 24 20 11 33 34 18 34 -4 0 -42 -22
-83 -48z"/>
<path d="M500 5003 c-24 -10 -145 -87 -148 -95 -2 -4 -11 -8 -20 -8 -8 0 -13
-3 -9 -6 12 -12 103 31 155 73 51 41 56 49 22 36z"/>
<path d="M8510 4950 c0 -5 7 -10 16 -10 8 0 12 5 9 10 -3 6 -10 10 -16 10 -5
0 -9 -4 -9 -10z"/>
<path d="M8566 4916 c37 -26 132 -76 145 -76 8 0 -5 10 -28 23 -23 12 -51 29
-61 38 -10 9 -32 19 -48 23 -28 7 -28 7 -8 -8z"/>
<path d="M0 2656 c0 -38 2 -39 255 -171 61 -31 124 -67 140 -79 55 -40 125
-77 135 -71 17 11 12 65 -7 72 -10 3 -70 36 -133 73 -63 37 -164 93 -224 124
-60 31 -118 63 -130 71 -30 22 -36 19 -36 -19z"/>
<path d="M0 2432 c0 -33 5 -40 43 -63 51 -31 173 -89 187 -89 6 0 10 -4 10
-10 0 -5 5 -10 10 -10 14 0 143 -60 150 -69 7 -10 101 -61 111 -61 5 0 9 16 9
35 0 46 2 45 -327 209 l-193 96 0 -38z"/>
<path d="M8255 2210 c-3 -5 -1 -10 4 -10 6 0 11 5 11 10 0 6 -2 10 -4 10 -3 0
-8 -4 -11 -10z"/>
<path d="M6125 2030 c-17 -27 97 -119 189 -154 49 -19 51 -37 4 -40 -28 -1
-35 -28 -13 -50 25 -24 9 -38 -36 -31 -21 4 -39 4 -39 0 0 -3 11 -21 25 -39
14 -18 25 -42 25 -54 0 -36 19 -72 37 -72 10 0 30 11 45 25 42 39 50 33 42
-34 -4 -40 -3 -61 5 -66 16 -9 -5 -35 -29 -35 -10 0 -23 -12 -29 -28 -6 -15
-25 -42 -42 -60 -26 -28 -37 -32 -79 -32 -65 0 -95 -28 -85 -80 4 -19 10 -55
15 -80 10 -64 18 -77 48 -87 29 -9 108 -9 147 1 26 7 33 34 14 53 -8 8 -20 8
-42 1 -28 -10 -33 -8 -64 26 -19 20 -33 42 -30 49 2 8 29 13 73 13 38 1 74 3
79 4 29 7 50 -5 101 -55 73 -71 94 -71 119 1 7 21 17 40 23 42 15 5 25 -34 14
-55 -4 -10 -7 -24 -6 -30 1 -7 2 -18 3 -24 1 -8 27 -10 92 -4 103 8 127 -1
154 -58 8 -18 32 -43 53 -55 l37 -22 -88 0 c-101 0 -336 25 -417 44 -38 9
-110 12 -235 10 -99 -2 -223 0 -275 6 -126 12 -504 29 -770 35 -786 17 -971
20 -1189 17 -216 -2 -245 0 -256 14 -9 13 -16 14 -31 7 -21 -11 -101 -9 -319
8 -197 15 -336 37 -410 64 -80 31 -248 52 -496 65 -107 5 -226 14 -265 20 -90
13 -340 12 -429 -1 -96 -14 -332 -14 -495 0 -74 6 -266 20 -427 31 -305 20
-366 30 -388 64 -8 12 -17 66 -21 122 l-7 101 -48 2 c-40 1 -48 -1 -42 -14 4
-11 -1 -18 -16 -22 -11 -3 -18 -10 -15 -15 3 -5 -3 -18 -15 -29 -12 -11 -21
-32 -21 -48 0 -30 21 -45 77 -56 18 -4 33 -10 33 -15 0 -5 6 -10 13 -13 6 -2
4 -3 -5 -2 -15 3 -17 -2 -11 -23 6 -24 5 -26 -11 -13 -9 8 -19 11 -23 7 -9 -8
-7 -191 2 -206 4 -6 0 -19 -8 -28 -8 -9 -18 -31 -21 -49 -4 -17 -15 -34 -24
-38 -9 -3 -80 -6 -157 -5 -77 1 -146 1 -152 1 -10 -1 -13 -112 -13 -521 l0
-520 3945 0 3945 0 0 58 c1 31 1 140 1 242 0 102 3 233 7 293 4 59 4 107 1
107 -4 0 -15 -12 -25 -28 -21 -33 -34 -44 -99 -81 -75 -43 -162 -55 -320 -41
-71 6 -215 17 -320 26 -308 24 -521 43 -660 59 -340 38 -916 54 -1987 54 -595
1 -757 4 -761 14 -6 17 4 110 14 122 10 13 1183 9 1694 -5 758 -21 957 -30
1090 -51 72 -11 207 -25 300 -30 94 -5 238 -16 320 -25 227 -23 521 -35 587
-25 66 11 100 27 148 70 33 30 35 31 52 13 33 -33 42 -131 41 -460 l-1 -313
40 3 c40 3 41 4 64 67 22 63 22 67 8 130 -17 74 -12 146 12 155 9 3 32 6 52 7
20 0 31 3 25 6 -7 2 -13 9 -13 15 0 7 36 9 113 4 276 -15 387 -18 440 -12 l57
7 0 36 0 36 -77 -6 c-97 -7 -362 9 -467 28 -98 18 -126 35 -123 74 2 27 7 31
41 37 22 3 172 3 333 -1 l293 -7 0 29 0 30 -82 6 c-46 4 -121 7 -168 7 -107 0
-400 27 -433 39 -27 11 -63 56 -69 86 -5 29 42 30 254 4 130 -15 204 -20 267
-15 47 4 119 9 159 12 l72 6 0 499 c0 274 -4 499 -8 499 -5 0 -17 -8 -28 -17
-10 -10 -30 -23 -44 -29 -34 -16 -172 -37 -245 -38 -33 -1 -66 -7 -73 -13 -25
-24 -104 -10 -88 16 11 16 36 13 36 -5 0 -8 5 -12 10 -9 14 9 -7 35 -26 35
-27 0 -13 27 19 36 36 11 51 49 22 60 -20 8 -39 51 -36 82 2 14 -4 25 -16 29
-10 3 -24 11 -31 17 -11 8 -11 11 4 16 17 6 16 8 -4 26 -12 10 -22 26 -22 36
0 23 -16 23 -25 1 -13 -34 -35 -126 -31 -130 2 -3 0 -19 -6 -36 -27 -89 -38
-139 -48 -226 -6 -53 -20 -130 -30 -171 -9 -41 -25 -109 -34 -150 -48 -219
-88 -294 -173 -326 -42 -16 -85 -18 -333 -19 -157 -1 -293 2 -302 6 -9 5 -18
19 -20 31 -2 15 -22 34 -58 56 -47 28 -63 32 -109 30 -64 -4 -78 13 -32 37 36
18 37 29 15 114 -8 34 -12 66 -9 71 13 21 34 8 58 -37 47 -90 60 -108 95 -135
35 -28 85 -37 97 -18 3 6 15 10 27 10 18 0 20 4 14 32 -8 42 -21 55 -59 63
-18 4 -52 26 -77 51 -47 45 -90 64 -148 64 -24 0 -41 9 -66 35 -33 34 -67 47
-159 60 -45 7 -53 23 -38 67 10 29 9 35 -9 50 -21 17 -27 48 -10 48 9 0 155
-94 188 -121 7 -6 23 -16 35 -22 12 -7 36 -22 54 -34 17 -13 37 -23 44 -23 15
0 -23 33 -71 62 -19 12 -37 24 -40 27 -3 4 -30 23 -60 43 -30 20 -71 54 -91
75 -52 55 -87 159 -37 109 39 -38 135 -63 258 -65 14 -1 50 -17 80 -36 40 -26
65 -35 96 -35 37 0 46 -4 65 -32 29 -44 100 -108 118 -108 8 0 -4 16 -27 35
-23 20 -51 53 -63 75 -15 27 -34 43 -63 54 -23 9 -56 29 -74 45 -18 17 -54 41
-80 54 -49 25 -161 57 -198 57 -10 0 -32 7 -48 15 -15 8 -33 15 -40 15 -18 1
-96 93 -96 115 0 19 40 -2 73 -37 35 -39 39 -42 51 -25 19 25 33 21 51 -14 20
-37 58 -38 63 -1 3 21 1 22 -16 13 -17 -9 -24 -6 -46 19 -14 17 -54 44 -89 61
l-64 30 -49 -19 c-48 -19 -58 -19 -99 -2 -90 36 -197 38 -266 5 -35 -17 -37
-17 -72 6 -20 13 -37 29 -37 35 0 25 -84 72 -95 54z m465 -177 c14 -15 20 -62
10 -68 -8 -5 -83 34 -120 62 -2 2 2 8 10 13 17 11 89 5 100 -7z m-60 -82 c0
-12 -20 -25 -27 -18 -7 7 6 27 18 27 5 0 9 -4 9 -9z m30 -56 c-16 -19 -30 -19
-30 0 0 17 33 38 38 24 2 -5 -2 -16 -8 -24z m137 -151 c-3 -3 -12 -4 -19 -1
-8 3 -5 6 6 6 11 1 17 -2 13 -5z m-187 -31 c0 -12 -43 -53 -57 -53 -23 0 -14
29 15 44 30 17 42 19 42 9z m190 -23 c0 -5 -5 -10 -11 -10 -5 0 -7 5 -4 10 3
6 8 10 11 10 2 0 4 -4 4 -10z m-132 -32 c22 -22 12 -36 -30 -40 -24 -3 -45 -3
-47 -1 -2 1 1 14 7 28 13 27 49 34 70 13z m-146 -69 c-4 -39 -24 -65 -42 -54
-7 5 -10 19 -6 38 13 62 54 76 48 16z m124 -51 c-2 -24 -4 -48 -5 -54 -2 -26
-61 -26 -61 0 1 26 40 96 54 96 12 0 15 -9 12 -42z m-6086 2 c0 -5 -2 -10 -4
-10 -3 0 -8 5 -11 10 -3 6 -1 10 4 10 6 0 11 -4 11 -10z m6142 -43 c-11 -18
-21 -39 -24 -47 -2 -7 -7 -10 -10 -5 -8 15 30 97 42 90 7 -4 4 -18 -8 -38z
m-252 9 c0 -7 -14 -16 -31 -20 -45 -9 -119 -7 -119 2 0 17 12 20 44 10 26 -8
40 -7 62 5 38 19 44 20 44 3z m320 -26 c0 -5 -4 -10 -10 -10 -5 0 -10 5 -10
10 0 6 5 10 10 10 6 0 10 -4 10 -10z m-6125 -21 c17 -5 134 -16 260 -24 215
-14 287 -19 615 -45 92 -8 167 -7 275 2 211 18 478 16 775 -5 328 -23 377 -30
507 -71 124 -39 213 -51 572 -76 79 -5 149 -15 157 -21 17 -14 18 -89 2 -111
-12 -15 -31 -16 -178 -7 -315 17 -484 42 -589 84 -129 53 -649 93 -1021 79
-295 -11 -576 -9 -750 5 -74 6 -229 18 -345 26 -119 9 -230 22 -257 31 -59 19
-88 56 -88 114 0 36 2 41 18 35 9 -4 31 -11 47 -16z m6025 -53 c0 -18 -17 -29
-30 -21 -8 5 -7 11 1 21 15 18 29 18 29 0z m135 -26 c3 -5 -1 -10 -10 -10 -9
0 -13 5 -10 10 3 6 8 10 10 10 2 0 7 -4 10 -10z m610 -21 c10 -15 -1 -22 -24
-14 -12 3 -19 11 -16 16 8 12 32 11 40 -2z m-6705 -107 c55 -12 185 -24 476
-42 83 -5 222 -14 308 -21 134 -9 195 -8 398 7 227 16 255 16 517 0 152 -9
321 -21 376 -27 109 -11 253 -43 298 -66 41 -20 160 -39 332 -53 334 -26 376
-29 385 -35 12 -8 13 -105 1 -123 -7 -11 -44 -11 -217 3 -305 23 -428 41 -525
74 -157 55 -187 59 -602 92 -115 9 -228 9 -505 -1 -346 -12 -411 -11 -687 10
-500 39 -529 43 -602 77 -37 17 -63 66 -63 118 l0 36 28 -19 c15 -10 52 -24
82 -30z m4015 -37 c687 -10 896 -16 1155 -32 146 -9 364 -17 485 -17 121 -1
226 -5 233 -9 31 -20 214 -40 412 -46 209 -6 215 -7 226 -28 20 -41 47 -63 76
-63 16 0 45 -7 65 -15 42 -18 69 -19 78 -5 9 15 -14 40 -37 40 -11 0 -18 5
-16 13 4 9 69 13 264 18 274 5 311 11 371 59 14 11 28 19 29 17 12 -12 -32
-115 -59 -140 -61 -57 -109 -71 -247 -73 -139 -2 -353 10 -475 26 -44 6 -181
15 -305 20 -158 7 -255 16 -325 31 -79 16 -160 22 -390 29 -159 5 -409 13
-555 19 -232 9 -1024 21 -1655 25 l-210 1 0 65 0 65 170 6 c94 3 215 4 270 3
55 -2 253 -6 440 -9z"/>
<path d="M4205 1731 c-19 -8 -19 -8 2 -19 29 -16 30 -15 36 8 5 21 -4 24 -38
11z"/>
</g>
</svg>
